<mxfile host="app.diagrams.net" modified="2024-07-01T18:01:32.916Z" agent="Mozilla/5.0 (Windows NT 10.0; Win64; x64) AppleWebKit/537.36 (KHTML, like Gecko) Chrome/126.0.0.0 Safari/537.36" version="24.5.4" etag="z7GIztuPhvVm7NTBHeFm" type="github">
  <diagram name="Page-1" id="a-sHES77a6tnaaSGZf6y">
    <mxGraphModel>
      <root>
        <mxCell id="0" />
        <mxCell id="1" parent="0" />
      </root>
    </mxGraphModel>
  </diagram>
</mxfile>
